<?xml version="1.0" encoding="UTF-8" standalone="no"?>
<!-- Created with Inkscape (http://www.inkscape.org/) -->

<svg
        width="200"
        height="200"
        viewBox="0 0 52.916666 52.916666"
        version="1.1"
        id="svg5"
        inkscape:version="1.1.1 (3bf5ae0d25, 2021-09-20)"
        sodipodi:docname="coins.svg"
        inkscape:export-filename="C:\Users\mbor8\OneDrive\Pictures\Drawing\coins.png"
        inkscape:export-xdpi="96"
        inkscape:export-ydpi="96"
        xmlns:inkscape="http://www.inkscape.org/namespaces/inkscape"
        xmlns:sodipodi="http://sodipodi.sourceforge.net/DTD/sodipodi-0.dtd"
        xmlns="http://www.w3.org/2000/svg"
>
  <sodipodi:namedview
     id="namedview7"
     pagecolor="#ffffff"
     bordercolor="#666666"
     borderopacity="1.0"
     inkscape:pageshadow="2"
     inkscape:pageopacity="0.0"
     inkscape:pagecheckerboard="0"
     inkscape:document-units="px"
     showgrid="true"
     units="px"
     inkscape:snap-to-guides="true"
     inkscape:snap-grids="false"
     inkscape:zoom="1.7700291"
     inkscape:cx="-144.06543"
     inkscape:cy="194.34709"
     inkscape:window-width="1920"
     inkscape:window-height="1028"
     inkscape:window-x="-6"
     inkscape:window-y="-6"
     inkscape:window-maximized="1"
     inkscape:current-layer="layer1"
     showguides="false">
    <inkscape:grid
       type="xygrid"
       id="grid1716" />
  </sodipodi:namedview>
  <defs
     id="defs2" />
  <g
     inkscape:label="Layer 1"
     inkscape:groupmode="layer"
     id="layer1">
    <ellipse
       style="fill:#ffffff;fill-opacity:1;stroke:#000000;stroke-width:0.677207;stroke-miterlimit:4;stroke-dasharray:none"
       id="ellipse1306-1"
       cx="26.556885"
       cy="18.098185"
       rx="9.1222525"
       ry="2.5298917" />
    <path
       style="fill:#ffffff;fill-opacity:1;stroke:#000000;stroke-width:0.435924;stroke-miterlimit:4;stroke-dasharray:none"
       id="ellipse1306-1-0"
       d="m 35.679137,20.967222 a 9.1222525,2.5298917 0 0 1 -4.561126,2.190951 9.1222525,2.5298917 0 0 1 -9.122253,0 9.1222525,2.5298917 0 0 1 -4.561126,-2.190951"
       sodipodi:type="arc"
       sodipodi:arc-type="arc"
       sodipodi:open="true"
       sodipodi:start="0"
       sodipodi:end="3.1415927"
       sodipodi:ry="2.5298917"
       sodipodi:rx="9.1222525"
       sodipodi:cy="20.967222"
       sodipodi:cx="26.556885" />
    <path
       style="fill:#ffffff;fill-opacity:1;stroke:#000000;stroke-width:0.435924;stroke-miterlimit:4;stroke-dasharray:none"
       id="ellipse1306-1-0-7"
       sodipodi:type="arc"
       sodipodi:arc-type="arc"
       sodipodi:open="true"
       sodipodi:start="0"
       sodipodi:end="3.1415927"
       sodipodi:ry="2.5298917"
       sodipodi:rx="9.1222525"
       sodipodi:cy="23.884769"
       sodipodi:cx="26.556885"
       d="m 35.679137,23.884769 a 9.1222525,2.5298917 0 0 1 -4.561126,2.190951 9.1222525,2.5298917 0 0 1 -9.122253,0 9.1222525,2.5298917 0 0 1 -4.561126,-2.190951" />
    <path
       style="fill:#ffffff;fill-opacity:1;stroke:#000000;stroke-width:0.435924;stroke-miterlimit:4;stroke-dasharray:none"
       id="ellipse1306-1-0-1"
       sodipodi:type="arc"
       sodipodi:arc-type="arc"
       sodipodi:open="true"
       sodipodi:start="0"
       sodipodi:end="3.1415927"
       sodipodi:ry="2.5298917"
       sodipodi:rx="9.1222525"
       sodipodi:cy="26.752024"
       sodipodi:cx="26.498756"
       d="m 35.621009,26.752024 a 9.1222525,2.5298917 0 0 1 -4.561126,2.19095 9.1222525,2.5298917 0 0 1 -9.122253,0 9.1222525,2.5298917 0 0 1 -4.561126,-2.19095" />
    <path
       style="fill:#ffffff;fill-opacity:1;stroke:#000000;stroke-width:0.435924;stroke-miterlimit:4;stroke-dasharray:none"
       id="ellipse1306-1-0-0"
       sodipodi:type="arc"
       sodipodi:arc-type="arc"
       sodipodi:open="true"
       sodipodi:start="0"
       sodipodi:end="3.1415927"
       sodipodi:ry="2.5298917"
       sodipodi:rx="9.1222525"
       sodipodi:cy="29.676628"
       sodipodi:cx="26.498756"
       d="m 35.621009,29.676628 a 9.1222525,2.5298917 0 0 1 -4.561126,2.190951 9.1222525,2.5298917 0 0 1 -9.122253,0 9.1222525,2.5298917 0 0 1 -4.561126,-2.190951" />
    <path
       style="fill:#ffffff;fill-opacity:1;stroke:#000000;stroke-width:0.435924;stroke-miterlimit:4;stroke-dasharray:none"
       id="ellipse1306-1-0-2"
       sodipodi:type="arc"
       sodipodi:arc-type="arc"
       sodipodi:open="true"
       sodipodi:start="0"
       sodipodi:end="3.1415927"
       sodipodi:ry="2.5298917"
       sodipodi:rx="9.1222525"
       sodipodi:cy="32.543884"
       sodipodi:cx="26.498756"
       d="m 35.621009,32.543884 a 9.1222525,2.5298917 0 0 1 -4.561126,2.190951 9.1222525,2.5298917 0 0 1 -9.122253,0 9.1222525,2.5298917 0 0 1 -4.561126,-2.190951" />
    <path
       style="fill:#ffffff;fill-opacity:1;stroke:#000000;stroke-width:0.435924;stroke-miterlimit:4;stroke-dasharray:none"
       id="ellipse1306-1-0-9"
       sodipodi:type="arc"
       sodipodi:arc-type="arc"
       sodipodi:open="true"
       sodipodi:start="0"
       sodipodi:end="3.1415927"
       sodipodi:ry="2.5298917"
       sodipodi:rx="9.1222525"
       sodipodi:cy="35.411144"
       sodipodi:cx="26.498756"
       d="m 35.621009,35.411144 a 9.1222525,2.5298917 0 0 1 -4.561126,2.190951 9.1222525,2.5298917 0 0 1 -9.122253,0 9.1222525,2.5298917 0 0 1 -4.561126,-2.190951" />
    <path
       style="fill:none;stroke:#000000;stroke-width:0.65464;stroke-linecap:butt;stroke-linejoin:miter;stroke-miterlimit:4;stroke-dasharray:none;stroke-opacity:1"
       d="m 35.695612,18.017988 -0.05736,17.435341"
       id="path1947" />
    <path
       style="fill:none;stroke:#000000;stroke-width:0.654641;stroke-linecap:butt;stroke-linejoin:miter;stroke-miterlimit:4;stroke-dasharray:none;stroke-opacity:1"
       d="m 17.387935,18.038346 -0.05736,17.435341"
       id="path1947-8" />
    <path
       style="fill:#91919d;fill-opacity:1;stroke:#000000;stroke-width:0.141241;stroke-opacity:1"
       d="m 24.77878,20.206822 c -3.014844,-0.145344 -6.079191,-0.94137 -6.766009,-1.757606 -0.232471,-0.276276 -0.232877,-0.438494 -0.0018,-0.713131 0.980412,-1.165153 5.959964,-2.012329 10.243197,-1.742685 3.116944,0.196222 5.513566,0.74452 6.569769,1.503029 0.429861,0.308702 0.553167,0.58355 0.380222,0.847497 -0.806349,1.230647 -5.636622,2.09376 -10.425393,1.862896 z"
       id="path51666" />
    <path
       style="fill:#91919d;fill-opacity:1;stroke:#000000;stroke-width:0.141241;stroke-opacity:1"
       d="M 24.353409,23.165496 C 21.78578,22.991715 19.403991,22.429443 18.338083,21.745453 17.773648,21.383255 17.753236,21.331138 17.753236,20.252148 v -0.945253 l 0.548882,0.287615 c 1.519421,0.796179 4.122772,1.285188 7.37354,1.385034 3.682621,0.113111 7.371982,-0.443989 9.155628,-1.382517 0.205536,-0.108149 0.398925,-0.208038 0.429755,-0.221976 0.03083,-0.01394 0.05605,0.408092 0.05605,0.937843 v 0.963185 l -0.242903,0.231146 c -1.28301,1.220901 -6.122612,1.969482 -10.720783,1.658271 z"
       id="path51705" />
    <path
       style="fill:#91919d;fill-opacity:1;stroke:#000000;stroke-width:0.141241;stroke-opacity:1"
       d="M 24.340514,26.086575 C 22.431862,25.936927 20.564183,25.592018 19.419378,25.177779 18.742351,24.932804 17.9588,24.464703 17.83333,24.230258 17.78728,24.144218 17.75324,23.634829 17.75324,23.03186 v -1.048743 l 0.320042,0.215994 c 0.176023,0.118796 0.57121,0.315546 0.878193,0.437222 4.016866,1.592118 12.592042,1.435911 15.82376,-0.288251 l 0.541864,-0.289091 v 1.06597 1.06597 l -0.242903,0.231015 c -0.700604,0.666314 -2.675104,1.263666 -5.138365,1.554531 -1.197776,0.141433 -4.39362,0.204319 -5.595313,0.110098 z"
       id="path51744" />
    <path
       style="fill:#91919d;fill-opacity:1;stroke:#000000;stroke-width:0.141241;stroke-opacity:1"
       d="m 23.921917,28.921408 c -2.643869,-0.217546 -5.073519,-0.87095 -5.925776,-1.593617 l -0.242905,-0.20597 v -1.077085 c 0,-0.592396 0.02003,-1.077084 0.04452,-1.077084 0.02448,0 0.139437,0.06759 0.25545,0.150199 0.310491,0.221088 1.139345,0.558027 1.904857,0.774345 4.449734,1.257409 12.005012,0.921888 14.884742,-0.661011 l 0.474292,-0.260705 v 1.00184 c 0,0.971701 -0.0059,1.008838 -0.195723,1.234445 -0.111643,0.132678 -0.493852,0.377635 -0.889693,0.570198 -1.141317,0.555221 -3.04614,0.968743 -5.30484,1.151647 -1.04986,0.08502 -3.93462,0.08086 -5.004922,-0.0072 z"
       id="path51783" />
    <path
       style="fill:#91919d;fill-opacity:1;stroke:#000000;stroke-width:0.141241;stroke-opacity:1"
       d="m 24.218231,31.874357 c -0.123321,-0.0164 -0.594181,-0.0659 -1.046357,-0.110012 -1.922268,-0.187531 -4.047244,-0.755126 -4.868503,-1.300411 -0.626321,-0.415853 -0.64227,-0.460631 -0.581486,-1.632545 l 0.05223,-1.007086 0.331583,0.210283 c 1.730681,1.097565 6.466021,1.725109 10.671657,1.414245 2.757625,-0.203832 5.201531,-0.77915 6.206331,-1.461026 0.145915,-0.09902 0.280625,-0.180039 0.299352,-0.180039 0.01873,0 0.03405,0.468281 0.03405,1.040622 0,1.006647 -0.0062,1.048026 -0.190762,1.267331 -0.563478,0.669655 -2.452825,1.28679 -4.966284,1.622187 -0.665912,0.08886 -1.621198,0.130638 -3.325924,0.145462 -1.315421,0.01143 -2.492573,0.0074 -2.615894,-0.009 z"
       id="path51822" />
    <path
       style="fill:#91919d;fill-opacity:1;stroke:#000000;stroke-width:0.141241;stroke-opacity:1"
       d="M 24.442451,34.751441 C 21.346406,34.5435 18.821319,33.882486 17.958771,33.054155 l -0.280274,-0.269158 v -1.0267 -1.0267 l 0.616603,0.325144 c 1.700261,0.896578 4.605027,1.38425 8.247897,1.384713 3.550644,5.29e-4 6.470657,-0.495213 8.157495,-1.384713 l 0.616603,-0.325144 v 1.0267 1.0267 l -0.280273,0.269158 c -1.287804,1.236715 -6.062554,2.00166 -10.594371,1.697286 z"
       id="path51861" />
    <path
       style="fill:#91919d;fill-opacity:1;stroke:#000000;stroke-width:0.141241;stroke-opacity:1"
       d="m 24.517191,37.629047 c -0.164428,-0.01619 -0.685738,-0.06591 -1.158468,-0.11048 -2.462389,-0.232185 -4.65411,-0.875646 -5.409641,-1.588204 L 17.678497,35.675167 V 34.61386 33.552553 l 0.205534,0.144809 c 2.50631,1.765819 11.081924,2.179267 15.55557,0.749967 0.720331,-0.230143 1.303412,-0.489897 1.653276,-0.736518 l 0.186848,-0.13171 -0.01283,1.094227 -0.01283,1.094229 -0.248748,0.211342 c -0.77937,0.662167 -2.593136,1.207889 -5.032097,1.514043 -0.849225,0.106601 -4.763805,0.204253 -5.456007,0.136105 z"
       id="path51900" />
    <ellipse
       style="fill:#ffffff;fill-opacity:1;stroke:#000000;stroke-width:0.674111;stroke-miterlimit:4;stroke-dasharray:none"
       id="ellipse1306-1-3"
       cx="15.367006"
       cy="34.658592"
       rx="9.0377703"
       ry="2.5302429" />
    <path
       style="fill:#ffffff;fill-opacity:1;stroke:#000000;stroke-width:0.435924;stroke-miterlimit:4;stroke-dasharray:none"
       id="ellipse1306-1-0-2-8"
       sodipodi:type="arc"
       sodipodi:arc-type="arc"
       sodipodi:open="true"
       sodipodi:start="0"
       sodipodi:end="3.1415927"
       sodipodi:ry="2.5302429"
       sodipodi:rx="9.0377703"
       sodipodi:cy="37.681576"
       sodipodi:cx="15.367006"
       d="m 24.404777,37.681576 a 9.0377703,2.5302429 0 0 1 -4.518886,2.191254 9.0377703,2.5302429 0 0 1 -9.03777,0 9.0377703,2.5302429 0 0 1 -4.518885,-2.191254" />
    <path
       style="fill:#ffffff;fill-opacity:1;stroke:#000000;stroke-width:0.435924;stroke-miterlimit:4;stroke-dasharray:none"
       id="ellipse1306-1-0-9-3"
       sodipodi:type="arc"
       sodipodi:arc-type="arc"
       sodipodi:open="true"
       sodipodi:start="0"
       sodipodi:end="3.1415927"
       sodipodi:ry="2.5302429"
       sodipodi:rx="9.0377703"
       sodipodi:cy="40.549229"
       sodipodi:cx="15.367006"
       d="m 24.404777,40.549229 a 9.0377703,2.5302429 0 0 1 -4.518886,2.191254 9.0377703,2.5302429 0 0 1 -9.03777,0 9.0377703,2.5302429 0 0 1 -4.518885,-2.191254" />
    <path
       style="fill:none;stroke:#000000;stroke-width:0.65464;stroke-linecap:butt;stroke-linejoin:miter;stroke-miterlimit:4;stroke-dasharray:none;stroke-opacity:1"
       d="m 6.2950681,40.624297 0.028425,-6.054139"
       id="path2278" />
    <path
       style="fill:none;stroke:#000000;stroke-width:0.65464;stroke-linecap:butt;stroke-linejoin:miter;stroke-miterlimit:4;stroke-dasharray:none;stroke-opacity:1"
       d="m 24.414021,40.805579 0.02843,-6.054138"
       id="path2278-3" />
    <path
       style="fill:#ff512f;fill-opacity:1;stroke:#000000;stroke-width:0.141241;stroke-opacity:1"
       d="M 12.971961,36.732763 C 9.9547644,36.458777 7.6048682,35.79531 6.9302436,35.026955 6.6381619,34.694294 6.6364448,34.609201 6.9154032,34.291487 7.4968917,33.629209 9.3657029,33.028136 11.850864,32.70408 c 1.249406,-0.16292 4.447832,-0.226701 5.792337,-0.115507 3.133459,0.259141 5.466509,0.9032 6.168668,1.702914 0.278987,0.317749 0.277249,0.402797 -0.01503,0.735687 -0.574377,0.654177 -2.281067,1.216052 -4.770949,1.570686 -0.827887,0.117914 -5.174399,0.21477 -6.053926,0.134903 z"
       id="path55878" />
    <path
       style="fill:#ff512f;fill-opacity:1;stroke:#000000;stroke-width:0.141241;stroke-opacity:1"
       d="M 14.018318,39.91048 C 10.720342,39.781663 8.0014717,39.138466 6.9245914,38.232329 L 6.6938152,38.038143 v -1.075669 -1.075668 l 0.4689498,0.257767 c 1.07308,0.589838 3.034462,1.059085 5.356671,1.281544 1.559076,0.149355 5.258693,0.103836 6.567223,-0.0808 2.033878,-0.286983 3.415349,-0.649841 4.386247,-1.152094 0.287749,-0.148854 0.543863,-0.28062 0.569143,-0.292809 0.02528,-0.0122 0.02971,0.458393 0.0099,1.045742 -0.03235,0.956598 -0.05272,1.086175 -0.195444,1.243184 -0.757865,0.833716 -3.876046,1.603362 -6.885915,1.699623 -0.616603,0.01971 -1.238812,0.04412 -1.382687,0.05423 -0.143874,0.01011 -0.850165,-0.0046 -1.569536,-0.03271 z"
       id="path55917" />
    <path
       style="fill:#ff512f;fill-opacity:1;stroke:#000000;stroke-width:0.141241;stroke-opacity:1"
       d="M 13.30829,42.760932 C 10.126466,42.514901 7.6513494,41.855496 6.8874468,41.050329 L 6.670009,40.821147 6.68745,39.829364 c 0.00959,-0.54548 0.025569,-0.99991 0.035505,-1.009845 0.00994,-0.0099 0.2456045,0.102759 0.5237091,0.250433 1.0149299,0.53893 2.5269859,0.935577 4.5668299,1.197988 1.317979,0.169545 5.509477,0.193675 6.801325,0.03915 2.296674,-0.274711 4.159695,-0.762584 5.044157,-1.320919 0.163223,-0.103039 0.314255,-0.187343 0.335625,-0.187343 0.02137,0 0.03885,0.466947 0.03885,1.037659 v 1.037661 l -0.286799,0.259107 c -0.736279,0.665183 -2.618375,1.224115 -5.094468,1.512921 -1.199975,0.139965 -4.188044,0.204126 -5.343898,0.114753 z"
       id="path55956" />
    <ellipse
       style="fill:#ffffff;fill-opacity:1;stroke:#000000;stroke-width:0.674111;stroke-miterlimit:4;stroke-dasharray:none"
       id="ellipse1306-1-6"
       cx="37.741676"
       cy="30.616467"
       rx="9.0377703"
       ry="2.5302429" />
    <path
       style="fill:#ffffff;fill-opacity:1;stroke:#000000;stroke-width:0.435924;stroke-miterlimit:4;stroke-dasharray:none"
       id="ellipse1306-1-0-1-3"
       sodipodi:type="arc"
       sodipodi:arc-type="arc"
       sodipodi:open="true"
       sodipodi:start="0"
       sodipodi:end="3.1415927"
       sodipodi:ry="2.5302429"
       sodipodi:rx="9.0377703"
       sodipodi:cy="33.587414"
       sodipodi:cx="37.741676"
       d="m 46.779447,33.587414 a 9.0377703,2.5302429 0 0 1 -4.518886,2.191254 9.0377703,2.5302429 0 0 1 -9.03777,0 9.0377703,2.5302429 0 0 1 -4.518885,-2.191254" />
    <path
       style="fill:#ffffff;fill-opacity:1;stroke:#000000;stroke-width:0.435924;stroke-miterlimit:4;stroke-dasharray:none"
       id="ellipse1306-1-0-0-5"
       sodipodi:type="arc"
       sodipodi:arc-type="arc"
       sodipodi:open="true"
       sodipodi:start="0"
       sodipodi:end="3.1415927"
       sodipodi:ry="2.5302429"
       sodipodi:rx="9.0377703"
       sodipodi:cy="36.512428"
       sodipodi:cx="37.741676"
       d="m 46.779447,36.512428 a 9.0377703,2.5302429 0 0 1 -4.518886,2.191255 9.0377703,2.5302429 0 0 1 -9.03777,0 9.0377703,2.5302429 0 0 1 -4.518885,-2.191255" />
    <path
       style="fill:#ffffff;fill-opacity:1;stroke:#000000;stroke-width:0.435924;stroke-miterlimit:4;stroke-dasharray:none"
       id="ellipse1306-1-0-2-2"
       sodipodi:type="arc"
       sodipodi:arc-type="arc"
       sodipodi:open="true"
       sodipodi:start="0"
       sodipodi:end="3.1415927"
       sodipodi:ry="2.5302429"
       sodipodi:rx="9.0377703"
       sodipodi:cy="39.380077"
       sodipodi:cx="37.741676"
       d="m 46.779447,39.380077 a 9.0377703,2.5302429 0 0 1 -4.518886,2.191255 9.0377703,2.5302429 0 0 1 -9.03777,0 9.0377703,2.5302429 0 0 1 -4.518885,-2.191255" />
    <path
       style="fill:#ffffff;fill-opacity:1;stroke:#000000;stroke-width:0.435924;stroke-miterlimit:4;stroke-dasharray:none"
       id="ellipse1306-1-0-9-5"
       sodipodi:type="arc"
       sodipodi:arc-type="arc"
       sodipodi:open="true"
       sodipodi:start="0"
       sodipodi:end="3.1415927"
       sodipodi:ry="2.5302429"
       sodipodi:rx="9.0377703"
       sodipodi:cy="42.247734"
       sodipodi:cx="37.741676"
       d="m 46.779447,42.247734 a 9.0377703,2.5302429 0 0 1 -4.518886,2.191255 9.0377703,2.5302429 0 0 1 -9.03777,0 9.0377703,2.5302429 0 0 1 -4.518885,-2.191255" />
    <path
       style="fill:none;stroke:#000000;stroke-width:0.65464;stroke-linecap:butt;stroke-linejoin:miter;stroke-miterlimit:4;stroke-dasharray:none;stroke-opacity:1"
       d="m 28.664353,42.397375 0.05231,-11.928532"
       id="path2141" />
    <path
       style="fill:none;stroke:#000000;stroke-width:0.65464;stroke-linecap:butt;stroke-linejoin:miter;stroke-miterlimit:4;stroke-dasharray:none;stroke-opacity:1"
       d="m 46.765287,42.345057 0.05231,-11.928532"
       id="path2141-0" />
    <path
       style="fill:#317aff;fill-opacity:1;stroke:#000000;stroke-width:0.141241;stroke-opacity:1"
       d="M 35.998813,32.734179 C 34.221684,32.61741 32.167072,32.276756 31.065985,31.916317 29.924006,31.542493 29.08538,30.990699 29.08538,30.613138 c 0,-0.648821 1.818902,-1.421095 4.29754,-1.824661 2.056913,-0.334902 5.453182,-0.409774 7.511351,-0.165587 2.843686,0.337381 4.977525,1.029306 5.404202,1.752383 0.12228,0.207224 0.124537,0.249171 0.02389,0.443809 -0.380174,0.735179 -2.505879,1.44567 -5.315976,1.776804 -0.941695,0.110966 -4.097176,0.19811 -5.007568,0.138293 z"
       id="path53811" />
    <path
       style="fill:#317aff;fill-opacity:1;stroke:#000000;stroke-width:0.141241;stroke-opacity:1"
       d="m 35.254061,35.767558 c -2.714696,-0.240975 -5.076076,-0.877943 -5.925777,-1.598446 l -0.242904,-0.20597 v -1.045943 c 0,-0.575268 0.02521,-1.034489 0.05606,-1.02049 0.03083,0.014 0.269108,0.136435 0.529505,0.272087 2.336999,1.217424 7.882641,1.695725 12.26969,1.058233 1.764876,-0.256458 3.405494,-0.730549 4.13994,-1.196319 l 0.344448,-0.218443 v 1.036431 c 0,1.196256 0.0028,1.189813 -0.708771,1.612985 -0.832943,0.495326 -2.458609,0.933474 -4.448275,1.198888 -1.08875,0.145235 -4.832694,0.211838 -6.013911,0.106987 z"
       id="path53850" />
    <path
       style="fill:#317aff;fill-opacity:1;stroke:#000000;stroke-width:0.141241;stroke-opacity:1"
       d="M 35.101934,38.680903 C 32.408653,38.408906 30.375068,37.874025 29.496448,37.206529 L 29.12275,36.922625 29.10206,35.772447 c -0.01998,-1.109109 -0.01585,-1.145775 0.11562,-1.026808 0.219863,0.198972 1.212096,0.629571 1.930503,0.837777 3.957706,1.147011 10.835026,0.996878 14.07809,-0.307322 0.347803,-0.139869 0.759804,-0.338643 0.915562,-0.441716 l 0.283196,-0.18741 v 1.115512 1.115515 l -0.235354,0.198038 c -0.765085,0.643774 -2.466441,1.170853 -4.846953,1.501582 -1.014439,0.140936 -5.184579,0.209955 -6.240777,0.103288 z"
       id="path53889" />
    <path
       style="fill:#317aff;fill-opacity:1;stroke:#000000;stroke-width:0.141241;stroke-opacity:1"
       d="m 35.819156,41.593783 c -3.105825,-0.197437 -5.723554,-0.883197 -6.572711,-1.721837 l -0.250004,-0.246909 0.0258,-0.949648 c 0.01418,-0.522308 0.04482,-0.968647 0.06807,-0.991867 0.02326,-0.02323 0.265806,0.07647 0.538999,0.221538 1.800506,0.956072 5.057092,1.448189 8.948042,1.35218 3.372291,-0.08321 6.180616,-0.632786 7.495873,-1.466898 l 0.351808,-0.22311 v 1.074341 1.074338 l -0.264347,0.2321 c -1.362832,1.196581 -5.942571,1.925413 -10.341515,1.645772 z"
       id="path53928" />
    <path
       style="fill:#317aff;fill-opacity:1;stroke:#000000;stroke-width:0.141241;stroke-opacity:1"
       d="M 35.811964,44.470696 C 33.01948,44.23537 31.095579,43.819109 29.886777,43.188705 29.608176,43.043411 29.297071,42.825707 29.195434,42.704917 29.018332,42.494443 29.010638,42.442201 29.010638,41.45013 v -1.035171 l 0.425252,0.256074 c 1.073631,0.646507 3.166406,1.161817 5.588195,1.376 1.412227,0.124899 4.369036,0.10628 5.772846,-0.03635 2.224461,-0.226008 4.304364,-0.749306 5.206061,-1.309831 0.201552,-0.125291 0.376468,-0.217792 0.388705,-0.205555 0.01225,0.01222 0.0301,0.468847 0.0397,1.014693 l 0.01746,0.992444 -0.254818,0.264176 c -0.640839,0.664372 -2.570686,1.263071 -5.04853,1.566212 -0.906947,0.110958 -4.53884,0.20484 -5.333534,0.137872 z"
       id="path53967" />
  </g>
</svg>
